<?xml version="1.0" encoding="UTF-8" standalone="no"?>
<svg
   xmlns:dc="http://purl.org/dc/elements/1.1/"
   xmlns:cc="http://creativecommons.org/ns#"
   xmlns:rdf="http://www.w3.org/1999/02/22-rdf-syntax-ns#"
   xmlns:svg="http://www.w3.org/2000/svg"
   xmlns="http://www.w3.org/2000/svg"
   xmlns:sodipodi="http://sodipodi.sourceforge.net/DTD/sodipodi-0.dtd"
   xmlns:inkscape="http://www.inkscape.org/namespaces/inkscape"
   width="149.36414mm"
   height="258.61444mm"
   viewBox="0 0 149.36414 258.61444"
   version="1.1"
   id="svg8"
   inkscape:version="1.0.2 (e86c870879, 2021-01-15)"
   sodipodi:docname="drawing-2.svg">
  <defs
     id="defs2">
    <inkscape:path-effect
       effect="spiro"
       id="path-effect835"
       is_visible="true"
       lpeversion="1" />
  </defs>
  <sodipodi:namedview
     id="base"
     pagecolor="#ffffff"
     bordercolor="#666666"
     borderopacity="1.0"
     inkscape:pageopacity="0.0"
     inkscape:pageshadow="2"
     inkscape:zoom="0.35"
     inkscape:cx="218.31541"
     inkscape:cy="459.86779"
     inkscape:document-units="mm"
     inkscape:current-layer="layer1"
     inkscape:document-rotation="0"
     showgrid="false"
     fit-margin-top="0"
     fit-margin-left="0"
     fit-margin-right="0"
     fit-margin-bottom="0"
     inkscape:window-width="1920"
     inkscape:window-height="1009"
     inkscape:window-x="0"
     inkscape:window-y="0"
     inkscape:window-maximized="1" />
  <metadata
     id="metadata5">
    <rdf:RDF>
      <cc:Work
         rdf:about="">
        <dc:format>image/svg+xml</dc:format>
        <dc:type
           rdf:resource="http://purl.org/dc/dcmitype/StillImage" />
        <dc:title></dc:title>
      </cc:Work>
    </rdf:RDF>
  </metadata>
  <g
     inkscape:label="Layer 1"
     inkscape:groupmode="layer"
     id="layer1"
     transform="translate(-48.070715,-26.493315)">
    <path
       style="fill:none;stroke:#000000;stroke-width:0.181541px;stroke-linecap:butt;stroke-linejoin:miter;stroke-opacity:1"
       d="M 68.978158,152.90195 C 64.337875,136.30903 67.712819,117.66577 77.875542,103.7526 88.038265,89.83944 104.77161,80.953676 121.98975,80.327014 c 17.21814,-0.626662 34.55316,7.01917 45.70041,20.156746 11.14724,13.13758 15.86852,31.48618 12.44673,48.37252 -2.32849,11.49098 -8.17562,22.06493 -15.60926,31.13166 -7.43364,9.06672 -16.4317,16.72618 -25.74183,23.85261 -18.62025,14.25286 -39.139643,27.02336 -52.586345,46.23388 -10.207067,14.58224 -15.71636,32.39967 -15.521691,50.19821 0.194668,17.79854 6.092348,35.49121 16.615917,49.84671 10.523569,14.35551 25.621599,25.30369 42.536669,30.84503 16.91506,5.54134 35.5645,5.64876 52.54228,0.30264 16.97778,-5.34612 32.20093,-16.11965 42.88917,-30.35297 10.68824,-14.23333 16.78934,-31.85688 17.18902,-49.652 0.39969,-17.79512 -4.90399,-35.67483 -14.94239,-50.37368 -10.03841,-14.69886 -24.76249,-26.14502 -41.48312,-32.24802"
       id="path833"
       inkscape:path-effect="#path-effect835"
       inkscape:original-d="m 68.978158,152.90195 c 71.776762,-60.563706 3.486526,29.87689 111.158732,-4.04567 35.36362,-11.14145 -62.62471,67.4789 -93.937435,101.21815 -31.312726,33.73926 76.465805,-38.583 99.825855,-31.43408"
       sodipodi:nodetypes="cssc" />
  </g>
</svg>
