<?xml version="1.0" encoding="UTF-8"?>
<svg version="1.1" id="Layer_1" xmlns="http://www.w3.org/2000/svg" xmlns:xlink="http://www.w3.org/1999/xlink" x="0px" y="0px" viewBox="0 0 2708 1234.1632" enable-background="new 0 0 2708 1234.1632" xml:space="preserve">
<g>
	<path style="fill: hsl(120, 100%, 25%);" d="M1020.4966,638.1918c39.0544-59.7485,86.0356-110.1454,131.5923-161.5808c37.261-42.0687,60.4753-91.6921,76.1813-143.8735   c11.6135-38.5843-10.8202-71.7646-34.3988-101.9885c-10.1895-13.0612-31.7787-24.8162-20.1869-43.9975   c10.9509-18.1207,29.4871-26.4149,54.6101-26.0119c26.6272,0.427,50.2159,3.337,70.3713,20.2865   c13.3151,11.1971,13.8384-2.1055,18.6046-7.7345c25.7294-30.3875,43.1145-67.4683,74.9246-92.9999   c34.4644-27.6621,43.9177-27.1964,69.8744,8.6561c8.2803,11.4371,13.6606,8.2417,21.2993,1.7718   c24.2192-20.5139,51.8071-37.3427,82.2047-46.8891c15.3243-4.8126,30.9154-7.3525,46.8844-8.7082   c16.1532-1.3714,31.6294,2.0914,47.9457,0.6543c12.2944-1.0829,24.6483-2.8853,36.9247-1.6153   c23.9683,2.4795,35.7462,16.1277,39.722,39.0725c3.5231,20.3304-15.3496,24.3235-30.1512,28.4647   c-38.8444,10.8678-68.4136,34.0148-95.9608,63.1252c-15.7705,16.6653-11.3947,37.1617-20.5214,54.6156   c-5.2374,10.0154,7.1014,3.4862,10.4503,2.2937c30.9724-11.0292,59.7593-27.043,90.1111-39.7442   c99.082-41.4624,200.5791-67.5882,308.443-75.8889c49.4744-3.8073,98.9805-9.8981,148.6912-8.0121   c47.769,1.8124,95.4319,5.3378,142.751,12.247c34.3401,5.0141,68.728,11.0072,103.5361,11.1249   c32.5137,0.11,58.3843-1.9196,76.8164-31.5215c14.969-24.0396,30.4514-13.3131,44.8833-2.805   c56.3567,41.0332,34.2876,132.7951-28.0073,157.1039c-19.0928,7.4503-17.324,10.118-8.1772,24.3657   c27.9316,43.5084,63.0923,82.0699,85.4277,129.4774c24.4644,51.9265,43.958,105.7109,56.668,161.6898   c12.7319,56.0754,13.3508,117.5698,10.7666,174.7996c-2.8584,63.2345-13.4746,125.6434-29.2119,186.8541   c-6.6558,25.8876-26.7114,46.3845-34.3044,73.2208c-5.1033,18.0364-6.4265,35.6319-3.6563,52.5069   c2.6379,16.0663,11.0396,31.9332,33.1924,31.3851c16.7463-0.4144,24.8323,9.3719,25.6011,26.106   c0.8745,19.0287-21.5212,23.8903-36.4521,26.942c-22.8049,4.6614-46.7949,3.5809-69.0352-3.3271   c-32.488-10.0909-61.0098-33.2543-79.613-61.3477c-4.7258-7.1365-10.6455-18.9911-20.2236-20.2625   c-10.6409-1.4124-23.8721,9.3767-32.3462,14.2769c-82.8943,47.9337-172.0952,75.4424-267.0156,90.1094   c-109.2867,16.8868-229.1858-4.8098-328.4375-52.2537c-45.3861-21.6953-87.6915-46.8347-126.7473-78.7728   c-37.9841-31.0616-72.7168-65.7584-108.5126-99.2482c-48.5947-45.614-101.4834-72.5002-167.0907-83.8791   c-48.1427-8.3499-84.9727,3.8471-117.6425,35.1577c-29.1312,27.9192-32.4149,81.3087-8.8711,110.2121   c10.6075,13.0222,26.7773,20.7222,41.3684,15.9324c14.7395-4.8385,37.1206-7.9938,33.7783-33.853   c-1.1423-8.8373,2.9431-16.7473,12.4242-17.0331c11.1198-0.3352,22.3468,4.27,27.6222,14.1477   c5.7249,10.7196,18.7534,26.1306,22.1329,23.3034c12.0803-10.1058,2.0939-23.6389-1.2135-36.65   c-4.1713-16.4107-13.9393-25.2733-27.4811-32.3704c-9.4896-4.9733-11.3563-13.509-8.9664-22.8553   c3.7209-14.5305,46.0148-6.0698,56.4641-3.3232c67.0004,17.6107,110.7319,95.8605,96.986,162.7709   c-15.2435,74.1998-111.3239,116.3153-179.045,125.8601c-69.2056,9.754-135.1816-17.8354-176.1206-74.4078   c-21.4888-29.6946-33.2025-65.1593-38.5854-101.1531c-10.0538-67.2264,5.2993-128.0135,47.9399-180.6439   c34.236-42.2566,75.8696-77.4969,128.1276-94.6705c56.2108-18.4725,126.3943-17.0492,178.3602,13.42   c6.054,3.5496,14.442,4.7288,19.6301-0.1612c6.2941-5.9322,5.366-16.4867,2.1046-22.5473   c-13.2882-24.6937,5.1703-33.6021,20.9077-33.7993c73.5638-0.9214,145.287,6.8313,202.1245,62.151   c16.2506,15.8165,34.0334,30.0521,50.9653,45.1787c5.3895,4.8149,12.0107,8.9264,18.2916,6.57   c2.4384-0.9148,2.8818-10.9348,1.9595-16.4249c-7.8201-46.5479-1.208-92.6814,7.0453-138.0125   c5.6218-30.8782,14.6663-60.4515,5.3176-92.0406c-7.5674-25.5701-16.1313-47.9741-48.9535-50.0506   c-6.4105-0.4055-23.4386,0.9651-23.1819-16.5167c0.2269-15.4226,11.5065-15.3958,21.6136-19.3766   c95.1782-37.4874,204.2333-3.9812,249.9254,98.6651c14.8989,33.4695,25.2728,63.7625,21.7731,99.4559   c-1.3684,13.9563,0.4771,17.9606,19.4141,17.0775c42.4146-1.9783,82.562,5.8098,115.1597,41.6285   c28.1936,30.98,35.3098,62.5717,26.9861,100.9588c-4.3035,19.8479-20.4912,29.2231-34.5342,40.4124   c-15.1519,12.0726-20.0559,20.2912-2.448,38.0621c47.2847,47.7225,105.6338,56.6389,167.9304,56.4712   c4.6506-0.0125,11.4924,1.0387,11.5728-5.5363c0.0496-4.041-3.6777-9.2426-7.2036-12.0376   c-28.5754-22.6521-30.1714-53.6611-27.0239-85.995c2.0286-20.8407,15.0601-27.2662,33.1367-20.0353   c51.1819,20.4734,101.5532,4.2215,127.9963-43.5397c25.897-46.7748,36.1038-98.2589,41.7417-150.6932   c0.7761-7.2198,6.4683-20.4531-6.5735-22.0748c-8.5928-1.0685-8.8359,10.421-12.1431,17.5531   c-35.7195,77.0288-98.0051,119.9359-179.8652,135.9653c-19.2698,3.7733-25.3713-8.1202-21.325-25.1902   c2.2202-9.3656,8.1362-17.8572,10.3374-27.2243c1.5452-6.5745,0.8628-15.4072-10.7231-10.5801   c-34.1885,14.2441-63.813-6.1772-94.0723-14.5249c-55.2878-15.2523-97.6338-52.2615-119.8992-103.7617   c-22.7102-52.5286-31.4064-110.0302-2.1277-164.4958c27.3987-50.9688,71.3933-79.2407,129.5232-84.4041   c14.4272-1.2815,30.2646-0.9645,35.5347,14.5714c4.3306,12.7659-10.2175,18.3275-17.7344,26.7132   c-15.0066,16.741-28.4167,34.9963-41.5803,53.2783c-9.343,12.976-7.3882,29.2427,3.2439,37.7055   c8.3811,6.6711,14.3901-8.9259,21.1875-14.6472c20.8472-17.5462,45.4067-21.6,71.3379-21.797   c16.8137-0.1277,19.033,10.8822,16.2856,23.414c-4.2188,19.2459-9.0708,38.992,16.5872,45.7409   c22.1265,5.82,35.7656-10.1192,47.8811-25.0857c25.0088-30.8933,17.8853-64.4551,4.9834-97.2158   c-32.6765-82.9724-124.186-111.8011-205.1675-122.3255c-74.3979-9.6688-151.7312-7.5066-226.6256-3.6325   c-6.3536,0.3287-12.9125,0.743-18.5958,3.6024c-26.6924,13.4292,9.075,40.0366,16.7078,53.0829   c8.3564,14.2832,13.8738,30.244,15.9285,46.6728c2.0811,16.6379-4.0049,29.7807-22.4399,23.5918   c-44.6567-14.9918-91.4575-29.8991-139.4229-30.8813c-48.5211-0.9936-98.0586,11.1916-143.9474,25.9479   c-43.0007,13.8277-84.9586,31.924-127.1455,48.08c-14.2361,5.452,1.7358,12.3199,6.6858,18.1457   c22.7731,26.8021,46.4666,52.9213,54.2484,88.8225c5.1057,23.5544-6.7211,36.9747-27.8328,28.1157   c-83.3442-34.9736-152.4993-0.158-225.1719,36.6555c-61.5913,31.2001-110.6051,76.5405-159.0488,122.0262   c-39.6401,37.2197-71.3489,83.5195-103.2588,128.1633c-32.7862,45.8698-62.981,94.2888-89.9886,143.2744   c-20.9114,37.9283-48.635,71.9666-66.1399,111.7891c-11.6429,26.4871-10.09,55.5275-34.4356,75.3232   c-16.0908,13.0835-37.1511,19.1226-57.8875,19.4371c-29.4225,0.4463-61.7446-7.1704-81.9147-29.7863   c-17.1647-19.2458-24.8008-44.3282-17.5649-69.541c5.3427-18.6156,16.6823-34.8831,28.5667-50.175   c12.3787-15.9281,25.4221-31.3511,34.4031-49.5445c9.901-20.0571,16.6504-41.5399,25.3792-62.1031   c17.7673-41.8566,17.351-85.2758,18.7039-129.506c1.1544-37.7352-23.8367-61.3685-38.42-90.5216   c-6.4595-12.9131-20.009-22.6472-35.6656-24.0308c-13.0043-1.1494-20.378-4.9092-20.7305-19.2789   c-0.3719-15.1574,6.7233-22.804,20.1504-28.9298c41.8054-19.0726,79.5779-10.4923,116.1398,13.4647   c6.306,4.1319,14.512,9.5332,20.8233,8.4457c8.1232-1.3997,4.9748-11.7153,4.4486-17.899   c-5.1835-60.9275-20.8876-118.8278-53.6983-170.9449c-18.3369-29.1267-45.5862-48.3788-76.4669-63.0161   c-10.3226-4.8929-25.7534-9.5429-23.5454-22.994c2.1294-12.9725,16.8478-18.7866,29.3782-21.7955   c20.8419-5.0047,41.9222-9.6302,63.1707-12.1486c19.6159-2.3248,15.4479-10.3292,7.6108-21.2648   c-38.1835-53.2785-86.3655-96.7801-140.0614-132.9485c-35.561-23.953-77.415-35.0296-121.3561-38.5466   c-57.1614-4.5752-112.5572-1.8548-167.3868,17.1416c-91.1119,31.5668-152.6189,86.8395-171.4237,186.4633   c-9.3524,49.5471,6.5737,90.6588,25.7799,131.8805c10.5613,22.6674,31.1926,35.869,59.108,37.1823   c23.5065,1.1061,36.6231-10.0729,47.0885-28.0066c16.1482-27.6716,9.668-53.7109-20.8096-60.9684   c-35.6248-8.4833-14.469-27.0911-5.8922-33.5542c22.5551-16.9958,51.5401-16.9444,77.3443-8.1172   c13.5795,4.6454,26.3922,11.5384,38.1415,19.7434c5.9332,4.1434,22.3124,23.4476,29.3152,18.4518   c2.2559-1.6094,3.19-7.808,2.0691-10.9942c-12.3248-35.0335-15.4189-74.2305-51.6812-97.8182   c-12.8455-8.3556-23.1009-17.3216-39.3573-15.3884c-10.6585,1.2675-20.3654-0.9843-21.7501-14.3002   c-1.1653-11.207,4.0368-16.0289,14.6927-21.7997c67.6948-36.6602,129.7999-30.4687,188.9684,18.5044   c36.4285,30.1515,46.3184,69.575,43.9485,114.0486c-0.7988,14.9907,3.888,18.9435,17.1376,13.0069   c13.866-6.2127,34.2887-13.8843,47.0871-1.505c13.3954,12.9568,12.2501,42.5511,12.9376,59.5602   c1.9619,48.5321-14.3555,96.5381-43.6827,135.0475c-17.0754,22.4217-38.9575,40.3672-63.3074,54.3855   c-12.3828,7.1288-25.3176,13.2523-38.4553,18.8496c-3.3902,1.4444-17.5157,4.8856-18.4189,8.5521   c-1.2684,5.1494,11.166,10.2032,14.7033,11.7198c23.4047,10.0346,44.7077,22.1303,65.1609,38.4669   c46.2654,36.9534,79.5253,93.0402,84.919,152.9367c5.808,64.498-26.234,130.9971-66.6683,179.5778   c-0.9345,1.1199-1.8759,2.234-2.824,3.3423c-20.8427,24.3013-46.3427,51.5652-76.7971,63.2869   c-49.7496,19.1483-106.9691,22.895-158.975,12.1246c-59.6583-12.3551-116.3201-57.6924-139.1162-114.5825   c-12.8962-32.1842-15.0469-74.8669-7.9547-108.7344c5.1659-24.6689,18.53-41.7269,38.2265-56.55   c31.9551-24.0486,67.1567-38.3621,108.0414-33.6429c9.6,1.1081,19.6125,3.481,26.5963,10.1604   c6.9838,6.6793,9.5037,18.8003,3.1059,26.0429c-5.1589,5.8401-13.7637,6.6345-21.2689,8.7303   c-25.2775,7.0589-42.1836,32.6904-45.4904,58.7259s4.6896,52.2363,15.4063,76.1932c2.104,4.7034,4.4374,9.5182,8.4125,12.7966   s10.0525,4.5752,14.3055,1.6664c4.4764-3.0616,5.2894-9.2235,5.6456-14.635c1.0858-16.496,1.7859-33.2366,6.7753-48.9974   c4.9895-15.7608,14.9586-30.7466,29.9235-37.7717c14.9648-7.0251,35.19-3.8951,44.524,9.7495   c4.6224,6.7571,6.2394,15.1981,10.7456,22.0333c9.0758,13.7668,28.9277,17.8129,44.146,11.4649s25.7661-21.1202,30.3787-36.9512   c15.8342-54.3447-16.4716-108.7495-60.6875-138.3401c-41.4023-27.7079-88.1915-35.0786-133.3269-48.7873   c-21.7251-6.5984-42.6944-13.5781-62.5735-24.2813c-18.5733-10.0001-28.6399-10.2207-33.8123,16.2213   c-10.5167,53.7635-46.1613,84.5839-89.9684,84.755c-38.9352,0.152-55.6676-19.0135-38.4068-53.8836   c20.4498-41.3124,3.212-75.8-7.6312-112.5605c-19.5471-66.2682-49.6088-130.0341-48.033-201.3004   c1.4727-66.6069,20.7384-128.7986,45.3576-190.1257C167.4091,167.0224,282.2769,78.1457,408.99,56.5456   c67.3348-11.4783,137.692-2.334,203.9645,11.6216c67.28,14.1678,125.2613,43.4125,176.5486,89.0374   c10.7053,9.5234,15.4246,7.8209,19.4048-3.5497c23.5178-67.1855,75.157-100.1802,141.8281-103.3186   c41.2502-1.9418,99.5374,10.8243,120.9035,50.3396c9.4531,17.4831,19.657,67.6411-11.2623,67.1871   c-14.9636-0.2197-29.9927,0.7385-44.8868-0.3158c-38.9397-2.7564-83.4659,36.3002-85.7135,75.3619   c-0.8835,15.3532,1.439,22.518,18.1859,12.3648c26.4216-16.0188,52.8243-26.3458,86.1161-16.5113   c17.4948,5.168,29.2878,14.6895,36.285,27.2046c6.6681,11.926-5.7766,23.583-15.6851,31.352   c-33.6808,26.4082-36.7902,57.9393-31.1371,99.8271c9.1575,67.8547,17.9678,137.4138-2.627,205.8423   C1017.9034,612.9938,1020.4966,624.6859,1020.4966,638.1918z M1616.222,90.624c-9.1108,0.9763-12.1091,0.614-14.4967,1.6542   c-50.2742,21.905-93.15,53.8582-132.1064,92.461c-9.5815,9.4945-12.407,35.8997-35.3772,24.8169   c-21.1475-10.2034-1.0736-29.8419-6.8425-44.3621c-2.0608-5.1867-0.2327-15.8213-2.3087-16.4058   c-7.887-2.2202-15.2355,2.1854-20.4468,8.586c-27.5115,33.7898-56.2147,66.8851-50.8018,115.498   c1.2532,11.2544-7.9197,18.1458-18.0734,20.2039c-16.6292,3.3708-28.713-2.7287-34.985-19.676   c-5.0684-13.6951-11.5144-26.8872-17.5199-40.2255c-3.012-6.6899-7.4921-12.8953-15.699-10.7339   c-12.0402,3.1711-0.5056,10.8981-1.9269,16.6347c-1.5341,6.193,1.5532,13.334,2.6685,19.8989   c4.266,25.1155,11.5129,51.6713,7.2618,75.8646c-7.8301,44.5631-26.2355,86.0372-51.325,124.8398   c-23.8616,36.9033-55.5802,66.504-84.1553,98.8798c-34.6295,39.2355-66.9862,80.1223-97.675,122.2842   c-24.3204,33.4125-50.9868,65.4883-67.7844,103.9799c-6.8992,15.8094-20.5683,22.361-36.1134,15.3939   c-16.6418-7.4589-5.6964-21.2221-1.8751-30.837c20.1614-50.729,41.8268-100.2991,44.4272-156.647   c2.9297-63.4841,3.5634-126.5579-0.3701-190.0768c-2.6578-42.92-16.9067-89.2104,17.2441-127.775   c5.244-5.9218,3.7242-10.3791-1.203-15.2349c-5.7986-5.7144-10.1217-2.791-15.2701,1.366   c-22.6832,18.3149-33.4343,43.5778-39.0425,70.7585c-2.7564,13.3592-7.5903,23.7831-20.7117,24.8802   c-15.6776,1.3109-16.8597-14.2343-21.0156-24.5491c-15.5873-38.6874-14.2073-79.5832-11.8899-119.8622   c2.4187-42.0376,21.3931-77.175,58.3278-98.8817c12.7045-7.4664,28.8278-9.241,38.7159-22.127   c-16.0001-6.695-32.688-1.9744-49.0386-2.7568c-2.5958-0.1242-5.2258,2.5-7.9836,3.4253   c-55.4941,18.6199-77.1608,61.3625-82.8536,115.6838c-0.7333,6.9977,3.7819,17.5988-9.3846,17.8217   c-8.3153,0.1408-15.0574,1.0452-22.2626-8.7905c-21.1854-28.92-49.4158-51.647-81.2011-67.6652   c-43.0889-21.7145-84.1526-45.3205-131.0768-58.2088c-74.896-20.5711-145.3323-15.4997-219.5874,3.6843   c-66.5043,17.1815-125.5294,49.9122-171.9144,100.4806c-94.0613,102.5445-115.1081,254.209-75.7978,384.1938   c2.3628,7.8129,4.8717,15.5815,7.4879,23.313c9.3608,27.6639,19.9001,55.0137,26.9121,83.4092   c5.8744,23.7887,15.1729,59.8561,3.9307,82.9534c-7.6141,15.6432,2.8335,25.1407,17.6993,15.48   c36.299-23.5892,41.0514-69.4849,27.3363-107.4434c-3.5281-9.7651-13.2189-22.1422,0.7307-28.4836   c12.7611-5.8012,29.5788-9.6249,39.6672,6.9318c3.1637,5.1921,5.9619,9.9045,10.9654,13.4349   c52.76,37.2256,115.3289,50.8993,174.7079,71.8107c69.3143,24.4103,131.4845,53.2936,147.1214,136.4748   c8.8817,47.246-5.1898,92.7608-44.7043,118.0211c-34.6445,22.147-72.7344,24.624-109.011-13.6177   c-11.8757-12.5191-16.3321-4.1989-20.2607,5.9419c-10.3232,26.6472-0.4196,48.6885,16.6423,68.7974   c5.0328,5.9315,14.1553,11.0541,9.9078,19.8314c-3.8122,7.8781-12.5323,11.506-21.8631,11.8541   c-40.1591,1.4987-96.7836-40.4174-108.4453-78.3787c-13.3997-43.6188-20.9802-85.9479,11.74-125.0201   c2.0193-2.4113,1.8795-6.6304,2.7442-10.0085c-2.6576,0.1382-5.4606-0.2272-7.9507,0.4914   c-30.3235,8.7501-53.3679,40.5066-54.9602,72.8726c-4.4874,91.2121,41.7932,157.7204,146.9241,164.1942   c40.5333,2.4958,79.8481-0.7346,117.1339-20.2227c56.0964-29.3198,91.0943-74.8113,104.2795-135.607   c11.2077-51.678,2.8485-104.8199-24.8796-147.3665c-19.928-30.5779-45.6476-61.5869-86.4882-76.4553   c-28.1546-10.2499-56.6721-19.2595-84.8011-29.4325c-6.8095-2.4626-23.9515,1.5836-21.2338-14.5199   c2.2061-13.0721,12.5284-17.0344,25.822-19.7969c47.938-9.9619,94.3159-23.8671,131.7205-58.7626   c37.3588-34.8527,60.7137-74.9051,58.6514-127.8518c-0.306-7.8545,4.9625-12.6216-1.4158-19.0844   c-5.1674-5.2359-14.7885-4.6696-20.7962-1.6671c-6.5825,3.2898-11.5159,9.0439-16.7689,14.1973   c-6.2889,6.1698-28.4795,22.7395-36.2524,13.7817c-6.4659-7.4513-12.3655-16.1439-4.9346-28.7912   c23.2731-39.611,13.1406-78.4004-4.7703-117.192c-12.2573-26.5472-66.2549-66.4087-89.6-63.5271   c-26.4015,3.2588,3.1302,22.9877,12.9336,31.1136c21.9883,18.2257,30.206,52.7843,32.7252,80.1444   c3.1719,34.4504-3.5478,68.9828-12.953,101.9904c-4.9177,17.2587-16.8232,36.407-40.4359,31.5583   c-20.9473-4.3013-16.2211-23.4079-16.7276-38.5099c-1.2068-35.9853-13.9764-52.7826-45.0363-59.0017   c20.5345,51.3582-1.4923,110.9134-46.798,126.5302c-55.2301,19.0377-115.6667-7.4105-145.5963-58.4924   c-42.1879-72.0038-31.7173-145.8725-2.8705-215.2262c29.1525-70.0885,87.6384-117.1949,156.923-149.3397   c59.5241-27.6163,122.8067-23.6072,185.9135-24.5956c50.4246-0.7898,100.7754,7.0936,142.0845,31.8588   c89.3904,53.5903,167.2185,121.0968,205.5814,223.4526c3.7734,10.0681,7.7851,19.1308-0.2213,27.2394   c-9.3328,9.4519-19.6329,4.5484-29.9168-0.6072c-10.1721-5.0995-18.0749-16.4586-31.9666-12.4383   c-5.9525,1.7227-14.7692-3.3314-16.799,7.2179c-1.2996,6.7532,2.3452,11.4287,7.3071,15.2366   c30.2242,23.1946,53.2792,50.2799,69.6741,86.4836c33.0981,73.088,36.1461,147.5789,25.0406,224.5905   c-1.3241,9.1819,1.9247,20.7744-14.5079,20.0085c-12.5403-0.5844-17.7731-4.5865-22.8064-17.4283   c-11.8044-30.1177-45.1455-49.1124-73.7848-46.5922c75.2462,99.0283,69.5786,164.098,20.5841,296.0838   c-8.3323,22.4465-22.8928,42.6839-35.5005,63.3785c-3.85,6.3196-9.8934,12.2314-1.285,17.2411   c17.6036,10.2444,35.8873,19.4227,54.393,27.9506c5.3424,2.462,10.825,0.5382,12.8145-7.7821   c13.9911-58.5159,56.6388-101.038,85.9524-150.9457c59.3406-101.0302,130.8589-193.1188,217.4825-272.4303   c60.8309-55.6963,126.1055-105.1836,204.9589-134.1644c38.0514-13.9848,76.8435-16.1201,116.4312-14.673   c8.3912,0.3068,17.2373-0.4206,19.9652-9.0773c3.1116-9.8734-6.3369-12.0219-12.9216-16.5483   c-16.3219-11.2197-32.5062-20.8175-52.8953-24.0163c-14.5045-2.2756-37.5686-14.2166-22.5371-31.709   c2.9677-3.4535,6.864-5.9604,10.7495-8.3345c46.0134-28.1134,100.4426-46.6346,151.0273-64.8645   c52.1462-18.7927,106.0388-33.4935,161.4518-38.0201c28.3457-2.3128,53.3297-2.7496,81.3582,3.3139   c13.6086,2.944,27.8667,5.6284,41.8195,3.7404c16.4473-2.2256,14.1311-5.3521,5.6375-13.8744   c-26.8707-26.9624-63.2411-33.7673-97.0981-45.63c-7.5288-2.638-17.8313-2.3785-17.8162-11.8107   c0.014-8.7424,10.6456-10.6984,17.5929-12.1209c116.5789-23.8701,234.6838-39.0354,353.7845-28.125   c49.8047,4.5627,101.9917,11.1394,148.2971,30.2983c63.6624,26.3403,117.7202,79.7202,139.1665,145.9763   c11.2227,34.6713,15.0049,82.9843-8.9182,112.9851c-20.4736,25.6751-52.2075,53.0188-86.8696,54.2345   c-24.3845,0.8552-52.082-1.7509-67.3391-27.8392c-6.3938-10.9329-11.8967-22.3867-17.8079-33.6018   c-13.7678,7.9586-15.3967,26.5675-14.6545,40.7861c0.4319,8.2769,1.8223,16.5469,3.9128,24.5625   c2.8542,10.9443,2.22,12.0096-4.7666,21.0586c-6.5486,8.4818-13.2903,1.3986-17.8311-1.1443   c-47.8406-26.7922-73.3218-100.3918-52.6743-149.9952c1.925-4.6244,2.8586-9.7357-1.1511-13.2237   c-0.7842-0.682-6.6372,3.3924-9.3047,6.1063c-44.1021,44.8694-40.9324,153.6794,9.6963,194.1353   c56.6716,45.2846,119.6626,69.1206,191.8633,31.6651c6.3816-3.3105,17.4412-10.1328,26.2258,1.743   c6.9829,9.4402,5.8977,17.3747,2.4849,27.5133c-3.4978,10.3911-15.6099,15.9333-14.7449,28.2347   c0.4731,6.7264,0.8867,18.1263,10.4924,10.3557c22.6196-18.2979,47.6897-34.0309,65.3337-58.1516   c36.72-50.199,53.394-106.2102,50.1169-168.2292c-0.4385-8.2974,0.0066-19.034,8.2881-20.1513   c9.4924-1.2805,21.0908,0.9892,27.4583,11.1844c3.634,5.8187,8.9673,11.7735,9.6062,18.0659   c3.4436,33.9308,18.4043,64.6179,26.0952,97.2535c14.3958,61.0862,7.0518,120.4626-17.7783,177.6763   c-29.2549,67.4086-70.2964,120.0865-153.176,118.4777c-18.1367-0.3522-18.5491,8.5679-9.075,20.0491   c12.2212,14.8101,29.0381,24.1965,48.5762,18.897c10.2598-2.783,18.9868-9.3467,29.4302-12.2094   c9.0015-2.4673,37.4084-9.1436,41.4858,3.2846c2.656,8.0957-3.1411,13.0114-8.1396,17.8115   c-4.2791,4.1095-8.4409,8.8657-13.5994,11.4518c-39.8774,19.9934-76.6184,44.5417-120.4521,58.7689   c-43.3472,14.0694-88.3513,22.9183-133.843,25.8448c-20.5979,1.3251-41.0647,1.899-61.6094,2.6368   c-21.7581,0.7814-43.686-2.9222-63.9302-10.9536c-41.0173-16.2728-80.696-53.413-90.6685-97.6674   c-3.8636-17.1463-14.4489-17.6854-27.9346-5.4868c-21.4784,19.4286-20.1893,40.7867-8.6013,63.6926   c5.1095,10.0997,8.9401,20.4413-1.1693,28.0779c-9.347,7.0606-18.3733,9.0244-31.5469,0.0938   c-60.5355-41.0377-96.5295-104.1276-141.485-158.2801c-27.7771-33.4598-55.2373-66.0464-92.921-88.9027   c-20.0067-12.1347-41.6233-21.6288-64.1183-28.0785c-11.7432-3.3669-56.2455-18.0032-62.6611-4.2866   c-5.0599,10.8182,4.1719,23.5243,9.6379,34.5906c0.8784,1.7784,2.2313,3.3317,3.0355,5.1359   c3.993,8.9579,11.9763,20.2988,4.8539,27.4986c-8.455,8.5469-22.4015,5.8929-33.6708,1.1819   c-18.0183-7.5321-36.0853-15.1132-53.4636-23.9827c-93.7687-47.8575-208.5443-23.5465-275.7898,59.5843   c-44.0457,54.4506-61.8564,151.8434-13.2091,214.7365c22.3646,28.9137,47.9316,51.9424,83.4377,63.4517   c55.6697,18.0455,134.1569,4.6184,169.5951-45.8092c24.9819-35.5487,33.9794-75.6453,6.682-110.6375   c-3.5179,44.554-13.3711,66.124-45.1682,101.6859c-6.2389,6.9777-13.641,9.2196-21.3264,6.703   c-8.6753-2.8407-18.8992-4.5929-18.8639-18.5619c0.0562-22.2936-13.7336-20.7506-28.8741-14.364   c-23.3073,9.8315-46.9402,16.1539-70.5961,1.9763c-38.6963-23.1917-70.8348-60.2634-68.9749-107.7098   c1.865-47.5757,33.0713-93.5767,73.0905-117.7905c52.2683-31.6252,137.7687-31.9254,191.4377-2.783   c44.6096,24.2231,86.6248,52.3778,128.8435,80.4354c73.1052,48.584,132.745,114.3049,214.5282,153.1022   c65.9827,31.3018,135.0948,45.3809,203.9757,54.0002c55.5203,6.9474,111.2134,4.5029,165.2781-10.3087   c53.8508-14.7532,107.8582-26.6256,159.189-49.3771c20.553-9.1097,40.7468-18.0267,58.2739-32.36   c12.509-10.2296,25.6057-19.7687,39.4229-28.1608c11.0496-6.7111,29.0859-21.0312,41.875-11.1826   c10.1892,7.8469,7.6758,19.9161,3.9707,30.208c-11.1658,31.0186,7.1558,52.219,23.8315,73.9316   c2.0122,2.6204,6.8848,4.8682,10.0027,4.4044c5.1685-0.7688,3.2961-5.4901,2.7825-9.3562   c-5.6641-42.6427,5.6084-82.5433,20.0447-121.9059c13.7859-37.5883,28.3328-73.5898,36.5012-112.9735   c10.2214-49.3022,12.5183-99.2203,11.9629-149.4311c-0.6123-55.3645,0.6799-115.0306-16.9519-168.119   c-1.6616-5.0031-3.4937-9.949-5.4976-14.8252c-35.3706-86.0624-77.7769-170.3816-154.6245-229.8133   c-10.0591-7.7792-22.8862-14.8433-20.4053-29.171c3.0508-17.6189,23.5806-16.9088,37.0635-20.552   c23.0176-6.2197,43.8435-16.8663,61.6594-32.5979c7.8596-6.9402,33.0349-27.0679,23.1763-39.7143   c-8.3455-10.7051-22.2783,7.7696-29.8213,11.187c-13.062,5.917-27.6438,6.1949-41.7,6.7309   c-15.6575,0.597-31.2986,2.0439-46.9988,2.4113c-34.082,0.7975-68.209-0.8519-102.0757-4.7307   c-38.9814-4.4646-77.9377-13.0353-116.8794-12.8881c-40.5366,0.1533-81.3003,0.7168-122.072,3.3894   c-87.5487,5.739-173.0558,17.6246-257.0834,43.433c-92.3373,28.3605-180.3444,65.881-264.0308,113.9086   c-9.4912,5.447-22.0441,10.3647-15.7428,23.3444c7.7432,15.95,5.1843,28.0119-9.7494,34.3305   c-14.9767,6.3366-29.3114,3.2592-35.7827-15.1209c-0.8374-2.3784-4.1122-4.3039-6.6803-5.6064   c-33.8442-17.1645-35.5216-29.202-2.2063-48.1482c32.913-18.7175,55.813-46.9329,72.704-77.6946   C1554.5242,177.8625,1570.5037,128.0139,1616.222,90.624z M2187.5557,1006.2303c6.9775,0,14.2825,1.3145,20.8533-0.3207   c8.9473-2.2264,23.8459-2.6525,24.5542-10.7178c0.9163-10.4312-13.385-10.3144-22.1875-13.6774   c-38.9487-14.8798-75.0974-31.9294-98.9043-70.5476c-23.2056-37.6434-24.647-34.629,4.8003-65.4036   c16.9248-17.6876,36.0437-36.7644,26.2522-67.2112c-9.8523-30.6353-26.9333-47.8907-60.3926-54.9781   c-32.7778-6.943-59.0439-2.7124-84.3486,17.9956c-9.6212,7.8727-35.8059,16.2853-38.2297-3.226   c-0.8037-6.47,1.8707-12.7948,4.1732-18.8945c21.4205-56.748,13.8312-122.5798-23.1154-171.04   c-23.3101-30.5741-54.3057-47.3707-92.3967-50.8679c-10.8385-0.9951-17.4042,0.7509-10.1329,14.8569   c22.077,42.8302,14.6649,87.8649,8.4724,132.9424c-3.7223,27.0953-6.5499,54.3069-10.4464,81.3791   c-3.9561,27.4866-9.9868,50.8476-2.7408,78.6573c5.4264,20.8262,16.7087,39.2756,23.1125,59.4699   c6.6313,20.9114,15.2748,41.4126,23.858,61.6761c1.5154,3.5773,3.1708,7.3352,6.3196,9.6107   c12.067,8.7202,14.764-14.4937,19.2823-20.121c22.6089-28.158,46.4688-53.7022,86.7664-54.4399   c16.1583-0.296,28.0718,2.82,25.5516,21.3086c-5.2411,38.4495,15.5736,65.5699,41.5813,86.7062   C2096.4944,998.8523,2143.0366,1000.9725,2187.5557,1006.2303z M780.8174,1145.0222c5.9789-0.0374,12.045-2.1163,15.7714-6.7123   c12.9556-15.9785-12.6797-35.7064-27.9911-30.7339c-8.3976,2.7274-14.5787,11.5339-13.689,20.321   c1.1846,11.6844,12.5392,15.8724,22.9636,16.9785C778.8444,1144.9788,779.8297,1145.0283,780.8174,1145.0222z"/>
</g>
</svg>